<mxfile host="app.diagrams.net" modified="2022-03-31T07:04:30.788Z" agent="5.0 (Windows)" etag="6r7813-OTxdpTsMdp20W" version="17.3.0" type="github">
  <diagram id="BmUCCTjrxPdn3c6gpski" name="Page-1">
    <mxGraphModel dx="868" dy="507" grid="1" gridSize="10" guides="1" tooltips="1" connect="1" arrows="1" fold="1" page="1" pageScale="1" pageWidth="850" pageHeight="1100" math="0" shadow="0">
      <root>
        <mxCell id="0" />
        <mxCell id="1" parent="0" />
        <mxCell id="YTq2AyZ1OLaJJa69deky-1" value="" style="whiteSpace=wrap;html=1;aspect=fixed;" vertex="1" parent="1">
          <mxGeometry x="380" y="200" width="100" height="100" as="geometry" />
        </mxCell>
        <mxCell id="YTq2AyZ1OLaJJa69deky-2" value="" style="endArrow=classic;html=1;rounded=0;" edge="1" parent="1" source="YTq2AyZ1OLaJJa69deky-1">
          <mxGeometry width="50" height="50" relative="1" as="geometry">
            <mxPoint x="400" y="290" as="sourcePoint" />
            <mxPoint x="550" y="230" as="targetPoint" />
            <Array as="points">
              <mxPoint x="550" y="230" />
            </Array>
          </mxGeometry>
        </mxCell>
      </root>
    </mxGraphModel>
  </diagram>
</mxfile>
